<svg xmlns="http://www.w3.org/2000/svg" version="1.1" xmlns:xlink="http://www.w3.org/1999/xlink" xmlns:svgjs="http://svgjs.dev/svgjs" width="100%" height="100%" viewBox="0 0 1000 600"><rect width="1000" height="600" x="0" y="0" fill="#263238"/><g><circle r="166.66666666666666" cx="403.4097696940104" cy="425.6319693428377" fill="#ffeb3b" transform="matrix(0.5279986222535951,0,0,0.5279986222535951,0,75.26692637531589)"/><path d="M366.44617614904166 500.63196706946565L342.29793215485824 500.63196706946565L296.8102867635531 350.63197004582236L319.5541094592057 350.63197004582236L356.34214514016685 479.83872951066155L394.26152020050006 350.63197004582236L413.65033646077336 350.63197004582236L451.56971152110657 479.83872951066155L487.2264078226956 350.63197004582236L510.0092422210852 350.63197004582236L464.7556670462019 500.63196706946565L440.33434113285966 500.63196706946565L403.54630545189855 380.3978992341292L366.44617614904166 500.63196706946565Z " fill="#263238" transform="matrix(0.5279986222535951,0,0,0.5279986222535951,0,75.26692637531589)"/><path d="M694.659762225519 465.09030067212524L681.7639302586772 465.09030067212524L653.4097665965257 354.6944790367541L665.7014319607207 354.6944790367541L689.4097627818289 448.7361357384083L716.7014265565667 354.6944790367541L728.7014252850013 354.6944790367541L755.8472557418589 448.7361357384083L779.555586562967 354.6944790367541L791.8472519271621 354.6944790367541L763.5139215961364 465.09030067212524L750.5972562981689 465.09030067212524L722.701425920784 371.3403106062317L694.659762225519 465.09030067212524ZM832.9514142382749 465.98613391053266L832.9514142382749 465.98613391053266Q820.3472489071936 465.98613391053266 813.0764163443054 462.2361343078969Q805.8055837814173 458.4861347052612 802.6597507814284 449.4861356589354Q799.5139177814395 440.48613661260964 799.5139177814395 424.8819715994198L799.5139177814395 424.8819715994198Q799.5139177814395 408.9861399504694 802.7222507748057 400.06947422864664Q805.9514170992976 391.1319751756981 813.3055829866888 387.5486422220684Q820.65974887408 383.9444759373129 833.0972475561551 383.9444759373129L833.0972475561551 383.9444759373129Q843.7639130925412 383.9444759373129 850.4305790527827 386.34030901677465Q857.097245013024 388.7361420962364 860.3264113375159 394.50697481807026Q863.5555776620077 400.29864087102993 863.5555776620077 410.48613979152367L863.5555776620077 410.48613979152367Q863.5555776620077 417.5486390431543 860.7847446222823 421.819471923934Q858.0139115825572 426.0903048047135 852.8264121322444 427.9653046060314Q847.6597460130573 429.84030440734927 840.5972467614266 429.84030440734927L840.5972467614266 429.84030440734927L811.3472498608679 429.84030440734927Q811.5139165098739 439.5903033742022 813.4514163045691 445.5069694139164Q815.40974943039 451.4444687847563 820.5764155495771 454.0694685066013Q825.7639149998898 456.69446822844634 835.8055806025033 456.69446822844634L835.8055806025033 456.69446822844634L861.5972445361868 456.69446822844634L861.5972445361868 463.8819674668315Q854.7014119335623 464.7986340363647 848.0972459666981 465.3819673078858Q841.5139133309598 465.98613391053266 832.9514142382749 465.98613391053266ZM811.2014165429877 422.0486385663172L811.2014165429877 422.0486385663172L839.7014135230194 422.0486385663172Q846.4514128077636 422.0486385663172 849.6805791322555 419.5694721623525Q852.9097454567474 417.09030575838773 852.9097454567474 410.63197310940393L852.9097454567474 410.63197310940393Q852.9097454567474 403.73614050677935 850.8889123375492 399.9236409107663Q848.8472458872253 396.09030798362755 844.5764130064457 394.50697481807026Q840.3055801256661 392.9444749836387 833.0972475561551 392.9444749836387L833.0972475561551 392.9444749836387Q824.7014151124762 392.9444749836387 819.9097489535528 395.4236413876034Q815.0972494635035 397.88197446044245 813.1597496688086 404.19447379154593Q811.2014165429877 410.48613979152367 811.2014165429877 422.0486385663172ZM899.0972405625442 465.98613391053266L899.0972405625442 465.98613391053266Q890.2639081652245 465.98613391053266 884.555575436768 460.7361344668426Q878.8472427083112 455.4861350231526 878.8472427083112 445.88196937417996L878.8472427083112 445.88196937417996L878.8472427083112 440.19446997684906Q878.8472427083112 430.7361376457567 885.0764087149117 424.8819715994198Q891.3055747215122 419.04863888420863 903.9097400525935 419.04863888420863L903.9097400525935 419.04863888420863L931.0555705094511 419.04863888420863L931.0555705094511 409.13197326834967Q931.0555705094511 404.19447379154593 929.3264040260136 400.6736408312935Q927.597237542576 397.1319745399153 923.1805713439161 395.19447474522013Q918.7639051452562 393.23614161939923 910.3472393704516 393.23614161939923L910.3472393704516 393.23614161939923L885.4514086751752 393.23614161939923L885.4514086751752 386.1944756988944Q890.7014081188653 385.2986424604869 897.680574045993 384.5486425399598Q904.6597399731205 383.79864261943266 914.0972389730872 383.79864261943266L914.0972389730872 383.79864261943266Q923.8472379399401 383.6319759704266 930.3055705889241 386.1944756988944Q936.7639032379078 388.7361420962364 939.8264029133937 394.2153081823097Q942.9097359200053 399.69447426838303 942.9097359200053 408.54863999682857L942.9097359200053 408.54863999682857L942.9097359200053 465.09030067212524L933.7639035557992 465.09030067212524L931.5139037942178 455.9444683079192Q930.9097371915708 456.5486349105661 927.8264041849592 458.04863475162034Q924.7639045094733 459.54863459267466 920.0347383439272 461.42363439399253Q915.3055721783809 463.2986341953104 909.8264060923076 464.63196738735866Q904.3472400062343 465.98613391053266 899.0972405625442 465.98613391053266ZM904.0555733704738 457.1319681820872L904.0555733704738 457.1319681820872Q906.7639064168219 457.2986348310932 910.2014060525713 456.5486349105661Q913.6597390194464 455.7986349900389 917.2639053042018 454.81946842712847Q920.8472382578317 453.840301864218 923.9305712644433 452.79863530793034Q927.0139042710549 451.73613542051686 928.9514040657499 450.9861354999897Q930.9097371915708 450.2361355794626 931.0555705094511 450.2361355794626L931.0555705094511 450.2361355794626L931.0555705094511 425.04863824842585L906.5972397678157 426.0903048047135Q898.0555740062565 426.3819714404741 894.3889077281239 430.29863769211585Q890.7014081188653 434.1944706126319 890.7014081188653 440.3403032947293L890.7014081188653 440.3403032947293L890.7014081188653 443.9444695794848Q890.7014081188653 448.7361357384083 892.7222412380635 451.67363542713963Q894.7639076883873 454.5903017847452 897.8264073638733 455.7986349900389Q900.9097403704849 456.9861348642069 904.0555733704738 457.1319681820872ZM1002.7638962442969 465.09030067212524L991.8055640721501 465.09030067212524Q984.0138982311181 465.09030067212524 978.9097321053083 462.54863427478324Q973.8055659794987 459.9861345463155 971.4097329000368 454.2986351489846Q969.0138998205751 448.590302420528 969.1597331384554 439.13197008943564L969.1597331384554 439.13197008943564L969.5972330920962 394.73614146045355L956.8472344431347 394.73614146045355L956.8472344431347 387.0903089373018L969.7638997411024 384.9861424936006L971.7013995357973 362.6319781956664L980.8472319000035 362.6319781956664L980.8472319000035 384.9861424936006L1003.9513961184649 384.9861424936006L1003.9513961184649 394.73614146045355L980.8472319000035 394.73614146045355L980.8472319000035 439.13197008943564Q980.8472319000035 444.38196953312564 981.9722317807942 447.5486358642403Q983.0972316615849 450.6944688642292 984.9722314629029 452.34030202316376Q986.8472312642208 453.98613518209834 988.9513977079217 454.6736351092482Q991.0555641516231 455.34030170527234 993.013897277444 455.4861350231526L993.013897277444 455.4861350231526L1002.7638962442969 456.38196826156L1002.7638962442969 465.09030067212524ZM1032.1597264627358 465.09030067212524L1020.3055610521818 465.09030067212524L1020.3055610521818 350.6319794672321L1032.1597264627358 350.6319794672321L1032.1597264627358 393.84030822204613Q1037.7013925421866 389.7986419836498 1045.4305583898413 386.7153089770382Q1053.159724237496 383.6319759704266 1061.555556681175 383.6319759704266L1061.555556681175 383.6319759704266Q1069.951389124854 383.6319759704266 1075.4305552109272 387.2361422551821Q1080.9097212970005 390.84030853993755 1083.5347210188456 396.98614122203503Q1086.1597207406908 403.13197390413245 1086.1597207406908 410.63197310940393L1086.1597207406908 410.63197310940393L1086.1597207406908 465.09030067212524L1074.3055553301365 465.09030067212524L1074.3055553301365 411.8403063146977Q1074.3055553301365 406.73614018888793 1072.2847222109385 402.84030726837193Q1070.26388909174 398.9444743478559 1066.5138894891047 396.69447458627445Q1062.7638898864689 394.444474824693 1057.5138904427786 394.444474824693L1057.5138904427786 394.444474824693Q1052.5555576348493 394.444474824693 1048.347224747447 395.4236413876034Q1044.1597251911703 396.38197461938813 1040.2638922706542 398.11114110282574Q1036.3472260190124 399.8403075862633 1032.1597264627358 402.23614066572503L1032.1597264627358 402.23614066572503L1032.1597264627358 465.09030067212524ZM1139.0972151312321 465.98613391053266L1139.0972151312321 465.98613391053266Q1126.5138831312765 465.98613391053266 1119.2222172372626 462.2361343078969Q1111.9513846743744 458.4861347052612 1108.8055516743852 449.4861356589354Q1105.6597186743966 440.48613661260964 1105.6597186743966 424.8819715994198L1105.6597186743966 424.8819715994198Q1105.6597186743966 408.9861399504694 1108.8888849988884 400.06947422864664Q1112.0972179922546 391.1319751756981 1119.4513838796456 387.5486422220684Q1126.805549767037 383.9444759373129 1139.263881780238 383.9444759373129L1139.263881780238 383.9444759373129Q1149.9097139854985 383.9444759373129 1156.5763799457395 386.34030901677465Q1163.2638792371067 388.7361420962364 1166.472212230473 394.50697481807026Q1169.7013785549648 400.29864087102993 1169.7013785549648 410.48613979152367L1169.7013785549648 410.48613979152367Q1169.7013785549648 417.5486390431543 1166.9305455152394 421.819471923934Q1164.159712475514 426.0903048047135 1158.9722130252012 427.9653046060314Q1153.8055469060141 429.84030440734927 1146.7638809855093 429.84030440734927L1146.7638809855093 429.84030440734927L1117.5138840849504 429.84030440734927Q1117.6597174028311 439.5903033742022 1119.5972171975259 445.5069694139164Q1121.5555503233468 451.4444687847563 1126.7222164425339 454.0694685066013Q1131.9097158928466 456.69446822844634 1141.9513814954603 456.69446822844634L1141.9513814954603 456.69446822844634L1167.7638787602696 456.69446822844634L1167.7638787602696 463.8819674668315Q1160.8472128265194 464.7986340363647 1154.263880190781 465.3819673078858Q1147.659714223917 465.98613391053266 1139.0972151312321 465.98613391053266ZM1117.3472174359445 422.0486385663172L1117.3472174359445 422.0486385663172L1145.8472144159764 422.0486385663172Q1152.5972137007207 422.0486385663172 1155.8263800252125 419.5694721623525Q1159.0555463497044 417.09030575838773 1159.0555463497044 410.63197310940393L1159.0555463497044 410.63197310940393Q1159.0555463497044 403.73614050677935 1157.034713230506 399.9236409107663Q1155.013880111308 396.09030798362755 1150.7222138994025 394.50697481807026Q1146.4513810186231 392.9444749836387 1139.263881780238 392.9444749836387L1139.263881780238 392.9444749836387Q1130.8472160054334 392.9444749836387 1126.0555498465096 395.4236413876034Q1121.2638836875863 397.88197446044245 1119.3055505617654 404.19447379154593Q1117.3472174359445 410.48613979152367 1117.3472174359445 422.0486385663172ZM1201.5138751839913 465.09030067212524L1189.659709773437 465.09030067212524L1189.659709773437 384.9861424936006L1198.6597088197627 384.9861424936006L1201.5138751839913 398.9444743478559Q1206.9097079455614 392.48614169887213 1213.576373905803 388.29864214259555Q1220.2638731971701 384.0903092551932 1228.9513722766096 384.0903092551932L1228.9513722766096 384.0903092551932Q1231.0555387203108 384.0903092551932 1232.9305385216285 384.2361425730735Q1234.8055383229462 384.38197589095375 1236.4513714818809 384.84030917572034L1236.4513714818809 384.84030917572034L1236.4513714818809 396.98614122203503Q1234.5138716871857 396.69447458627445 1232.2638719256042 396.46530794389116Q1230.0138721640228 396.23614130150787 1227.7638724024414 396.23614130150787L1227.7638724024414 396.23614130150787Q1222.2013729918654 396.23614130150787 1217.8472067865823 397.5903078246819Q1213.5138739124254 398.9444743478559 1209.597207660784 401.6319740630782Q1205.701374740268 404.3403071094262 1201.5138751839913 408.23614002994225L1201.5138751839913 408.23614002994225L1201.5138751839913 465.09030067212524ZM1257.451369256641 465.09030067212524L1245.159703892446 465.09030067212524L1282.9513665545642 354.6944790367541L1298.2638649319938 354.6944790367541L1336.0555275941115 465.09030067212524L1323.7638622299169 465.09030067212524L1312.6596967398896 433.590304009985L1268.2638681109074 433.590304009985L1257.451369256641 465.09030067212524ZM1290.5971990777161 365.19447792413416L1271.2638677930163 422.79863848684437L1309.6596970577812 422.79863848684437L1290.5971990777161 365.19447792413416ZM1364.4096912562627 500.6319635726618L1352.5555258457089 500.6319635726618L1352.5555258457089 384.9861424936006L1362.1596914946813 384.9861424936006L1364.4096912562627 393.23614161939923Q1367.0971909714854 391.29864182470413 1371.3888571833904 389.11114205649994Q1375.6596900641703 386.9444756194215 1380.680522865477 385.44447577836723Q1385.7013556667835 383.9444759373129 1390.6596884747132 383.9444759373129L1390.6596884747132 383.9444759373129Q1398.451354315745 383.9444759373129 1403.9305204018183 387.3194755796851Q1409.409686487892 390.69447522205724 1412.8471861236412 396.38197461938813Q1416.3055190905166 402.09030734784477 1417.805518931571 409.444473235236Q1419.305518772625 416.79863912262715 1419.305518772625 424.8819715994198L1419.305518772625 424.8819715994198Q1419.305518772625 438.3819701689085 1416.2221857660134 447.61113585761757Q1413.1596860905274 456.8403015463266 1406.8471867594244 461.4861343873698Q1400.5555207594462 466.131967228413 1390.6596884747132 466.131967228413L1390.6596884747132 466.131967228413Q1383.909689189969 466.131967228413 1377.0763565807215 463.9653007913345Q1370.2638573025997 461.79863435425614 1364.4096912562627 458.4861347052612L1364.4096912562627 458.4861347052612L1364.4096912562627 500.6319635726618ZM1387.3471888257181 456.0903016257995L1387.3471888257181 456.0903016257995Q1393.055521554175 456.0903016257995 1397.5555210773377 453.2361352615712Q1402.0555206005006 450.38196889734286 1404.763853646849 443.56946961922125Q1407.4513533620711 436.7361370099739 1407.4513533620711 424.8819715994198L1407.4513533620711 424.8819715994198Q1407.4513533620711 413.63197279151257 1404.5971869978425 406.81947351339096Q1401.76385396474 399.9861409041436 1397.2638544415772 396.92364122865774Q1392.7638549184144 393.84030822204613 1387.3471888257181 393.84030822204613L1387.3471888257181 393.84030822204613Q1380.4513562230936 393.84030822204613 1374.6805235012598 396.0069746591246Q1368.909690779426 398.1944744273287 1364.4096912562627 400.59030750679045L1364.4096912562627 400.59030750679045L1364.4096912562627 449.6319689768157Q1369.659690699953 452.486135341044 1375.576356739667 454.2986351489846Q1381.5138561105073 456.0903016257995 1387.3471888257181 456.0903016257995ZM1451.0971820705258 500.6319635726618L1439.2638499910977 500.6319635726618L1439.2638499910977 384.9861424936006L1448.8471823089444 384.9861424936006L1451.0971820705258 393.23614161939923Q1453.8055151168737 391.29864182470413 1458.0763479976536 389.11114205649994Q1462.347180878433 386.9444756194215 1467.3888470108654 385.44447577836723Q1472.4096798121723 383.9444759373129 1477.3471792889763 383.9444759373129L1477.3471792889763 383.9444759373129Q1485.1596784611338 383.9444759373129 1490.638844547207 387.3194755796851Q1496.0971773021547 390.69447522205724 1499.55551026903 396.38197461938813Q1503.013843235905 402.09030734784477 1504.5138430769593 409.444473235236Q1506.0138429180138 416.79863912262715 1506.0138429180138 424.8819715994198L1506.0138429180138 424.8819715994198Q1506.0138429180138 438.3819701689085 1502.9305099114022 447.61113585761757Q1499.8471769047906 456.8403015463266 1493.5555109048128 461.4861343873698Q1487.263844904835 466.131967228413 1477.3471792889763 466.131967228413L1477.3471792889763 466.131967228413Q1470.5971800042316 466.131967228413 1463.7846807261103 463.9653007913345Q1456.9513481168628 461.79863435425614 1451.0971820705258 458.4861347052612L1451.0971820705258 458.4861347052612L1451.0971820705258 500.6319635726618ZM1474.055512971107 456.0903016257995L1474.055512971107 456.0903016257995Q1479.7638456995637 456.0903016257995 1484.2638452227266 453.2361352615712Q1488.7638447458894 450.38196889734286 1491.4513444611116 443.56946961922125Q1494.1596775074595 436.7361370099739 1494.1596775074595 424.8819715994198L1494.1596775074595 424.8819715994198Q1494.1596775074595 413.63197279151257 1491.3055111432313 406.81947351339096Q1488.4513447790032 399.9861409041436 1483.9513452558404 396.92364122865774Q1479.451345732677 393.84030822204613 1474.055512971107 393.84030822204613L1474.055512971107 393.84030822204613Q1467.1596803684824 393.84030822204613 1461.3888476466486 396.0069746591246Q1455.5971815936887 398.1944744273287 1451.0971820705258 400.59030750679045L1451.0971820705258 400.59030750679045L1451.0971820705258 449.6319689768157Q1456.3471815142161 452.486135341044 1462.2846808850559 454.2986351489846Q1468.20134692477 456.0903016257995 1474.055512971107 456.0903016257995ZM1532.8471734079849 465.23613399000556L1526.263840772247 465.23613399000556Q1523.8471743616592 465.23613399000556 1523.8471743616592 462.8403009105438L1523.8471743616592 462.8403009105438L1523.8471743616592 450.84030218210944Q1523.8471743616592 448.4444691026477 1526.263840772247 448.4444691026477L1526.263840772247 448.4444691026477L1532.8471734079849 448.4444691026477Q1535.2638398185727 448.4444691026477 1535.2638398185727 450.84030218210944L1535.2638398185727 450.84030218210944L1535.2638398185727 462.8403009105438Q1535.2638398185727 464.04863411583756 1534.5763398914228 464.63196738735866Q1533.9096732953985 465.23613399000556 1532.8471734079849 465.23613399000556L1532.8471734079849 465.23613399000556ZM1566.1596698780659 370.7361440035848L1557.763837434387 370.7361440035848Q1555.3471710237995 370.7361440035848 1555.3471710237995 368.34031092412306L1555.3471710237995 368.34031092412306L1555.3471710237995 356.63197883144926Q1555.3471710237995 354.2361457519875 1557.763837434387 354.2361457519875L1557.763837434387 354.2361457519875L1566.1596698780659 354.2361457519875Q1567.347169752234 354.2361457519875 1567.8888363615038 354.9236456791374Q1568.4096696396473 355.5903122751615 1568.4096696396473 356.63197883144926L1568.4096696396473 356.63197883144926L1568.4096696396473 368.34031092412306Q1568.4096696396473 370.7361440035848 1566.1596698780659 370.7361440035848L1566.1596698780659 370.7361440035848ZM1567.8055030370006 465.09030067212524L1555.9513376264467 465.09030067212524L1555.9513376264467 384.9861424936006L1567.8055030370006 384.9861424936006L1567.8055030370006 465.09030067212524ZM1622.4096639176023 465.98613391053266L1622.4096639176023 465.98613391053266Q1613.7013315070367 465.98613391053266 1607.1804988646759 464.1944674337178Q1600.6596662223146 462.38196762577724 1596.3055000170325 457.88196810261434Q1591.9513338117495 453.38196857945144 1589.8471673680483 445.3611360960361Q1587.7638342554728 437.34030361262074 1587.7638342554728 424.8819715994198L1587.7638342554728 424.8819715994198Q1587.7638342554728 412.2986395994643 1589.8471673680483 404.2569737849232Q1591.9513338117495 396.23614130150787 1596.3055000170325 391.81947510284795Q1600.6596662223146 387.38197557306233 1607.1804988646759 385.6736424207505Q1613.7013315070367 383.9444759373129 1622.4096639176023 383.9444759373129L1622.4096639176023 383.9444759373129Q1631.0971629970418 383.9444759373129 1637.6388289705283 385.73614241412776Q1644.1596616128895 387.5486422220684 1648.513827818172 391.96530842072826Q1652.847160692329 396.38197461938813 1655.0346604605334 404.4236404339292Q1657.2013268976116 412.44447291734457 1657.2013268976116 424.8819715994198L1657.2013268976116 424.8819715994198Q1657.2013268976116 437.48613693050106 1655.0346604605334 445.5069694139164Q1652.847160692329 453.54863522845744 1648.5763278115492 457.9653014271173Q1644.3054949307698 462.38196762577724 1637.7013289639058 464.1944674337178Q1631.0971629970418 465.98613391053266 1622.4096639176023 465.98613391053266ZM1622.4096639176023 456.23613494367976L1622.4096639176023 456.23613494367976Q1627.9513299970527 456.23613494367976 1632.2221628778325 455.194468387392Q1636.5138290897376 454.1319684999786 1639.3471621228405 450.9861354999897Q1642.2013284870686 447.8403025000008 1643.701328328123 441.5486365000231Q1645.201328169177 435.2361371689196 1645.201328169177 424.8819715994198L1645.201328169177 424.8819715994198Q1645.201328169177 414.3819727120397 1643.701328328123 408.23614002994225Q1642.2013284870686 402.09030734784477 1639.3471621228405 398.9444743478559Q1636.5138290897376 395.79864134786703 1632.2221628778325 394.73614146045355Q1627.9513299970527 393.6944749041659 1622.4096639176023 393.6944749041659L1622.4096639176023 393.6944749041659Q1616.7013311891455 393.6944749041659 1612.513831632869 394.73614146045355Q1608.3054987454666 395.79864134786703 1605.4513323812384 398.9444743478559Q1602.5971660170098 402.09030734784477 1601.0971661759554 408.23614002994225Q1599.5971663349014 414.3819727120397 1599.5971663349014 424.8819715994198L1599.5971663349014 424.8819715994198Q1599.5971663349014 435.2361371689196 1601.0971661759554 441.5486365000231Q1602.5971660170098 447.8403025000008 1605.4513323812384 450.9861354999897Q1608.3054987454666 454.1319684999786 1612.513831632869 455.194468387392Q1616.7013311891455 456.23613494367976 1622.4096639176023 456.23613494367976Z " fill="#ffeb3b" transform="matrix(0.5279986222535951,0,0,0.5279986222535951,0,75.26692637531589)"/></g></svg>